HIERARCHY
ROOT Hips
{
	OFFSET -3.958830 18.904000 13.208200
	CHANNELS 6 Xposition Yposition Zposition Zrotation Yrotation Xrotation 
	JOINT LHipJoint
	{
		OFFSET 0.000000 0.000000 0.000000
		CHANNELS 3 Zrotation Yrotation Xrotation
		JOINT LeftUpLeg
		{
			OFFSET 1.800000 -1.400000 0.085000
			CHANNELS 3 Zrotation Yrotation Xrotation
			JOINT LeftLeg
			{
				OFFSET 2.215000 -6.000000 0.000000
				CHANNELS 3 Zrotation Yrotation Xrotation
				JOINT LeftFoot
				{
					OFFSET 2.500000 -6.900000 0.000000
					CHANNELS 3 Zrotation Yrotation Xrotation
					JOINT LeftToeBase
					{
						OFFSET 0.200000 -0.500000 1.950000
						CHANNELS 3 Zrotation Yrotation Xrotation
						End Site
						{
							OFFSET 0.000000 0.000000 0.000000
						}
					}
				}
			}
		}
	}
	JOINT RHipJoint
	{
		OFFSET 0.000000 0.000000 0.000000
		CHANNELS 3 Zrotation Yrotation Xrotation
		JOINT RightUpLeg
		{
			OFFSET -1.800000 -1.400000 0.085000
			CHANNELS 3 Zrotation Yrotation Xrotation
			JOINT RightLeg
			{
				OFFSET -2.215000 -6.000000 0.000000
				CHANNELS 3 Zrotation Yrotation Xrotation
				JOINT RightFoot
				{
					OFFSET -2.500000 -6.900000 0.000000
					CHANNELS 3 Zrotation Yrotation Xrotation
					JOINT RightToeBase
					{
						OFFSET -0.200000 -0.500000 1.950000
						CHANNELS 3 Zrotation Yrotation Xrotation
						End Site
						{
							OFFSET 0.000000 0.000000 0.000000
						}
					}
				}
			}
		}
	}
	JOINT LowerBack
	{
		OFFSET 0.000000 0.000000 0.000000
		CHANNELS 3 Zrotation Yrotation Xrotation
		JOINT Spine
		{
			OFFSET -0.087000 1.940000 -0.288900
			CHANNELS 3 Zrotation Yrotation Xrotation
			JOINT Spine1
			{
				OFFSET 0.000000 1.950000 0.060000
				CHANNELS 3 Zrotation Yrotation Xrotation
				JOINT Neck
				{
					OFFSET 0.000000 0.000000 0.000000
					CHANNELS 3 Zrotation Yrotation Xrotation
					JOINT Neck1
					{
						OFFSET 0.000000 1.600000 0.340000
						CHANNELS 3 Zrotation Yrotation Xrotation
						JOINT Head
						{
							OFFSET 0.000000 1.667000 -0.240000
							CHANNELS 3 Zrotation Yrotation Xrotation
							End Site
							{
								OFFSET 0.000000 0.000000 0.000000
							}
						}
					}
				}
				JOINT LeftShoulder
				{
					OFFSET 0.000000 0.000000 0.000000
					CHANNELS 3 Zrotation Yrotation Xrotation
					JOINT LeftArm
					{
						OFFSET 2.700000 1.550000 -0.730000
						CHANNELS 3 Zrotation Yrotation Xrotation
						JOINT LeftForeArm
						{
							OFFSET 5.450000 0.000000 0.000000
							CHANNELS 3 Zrotation Yrotation Xrotation
							JOINT LeftHand
							{
								OFFSET 3.450000 0.000000 0.000000
								CHANNELS 3 Zrotation Yrotation Xrotation
								JOINT LeftHandIndex1
								{
									OFFSET 0.750000 0.000000 0.000000
									CHANNELS 3 Zrotation Yrotation Xrotation
									End Site
									{
										OFFSET 0.000000 0.000000 0.000000
									}
								}
							}
						}
					}
				}
				JOINT RightShoulder
				{
					OFFSET 0.000000 0.000000 0.000000
					CHANNELS 3 Zrotation Yrotation Xrotation
					JOINT RightArm
					{
						OFFSET -2.700000 1.550000 -0.730000
						CHANNELS 3 Zrotation Yrotation Xrotation
						JOINT RightForeArm
						{
							OFFSET -5.450000 0.000000 0.000000
							CHANNELS 3 Zrotation Yrotation Xrotation
							JOINT RightHand
							{
								OFFSET -3.450000 0.000000 0.000000
								CHANNELS 3 Zrotation Yrotation Xrotation
								JOINT RightHandIndex1
								{
									OFFSET -0.750000 0.000000 0.000000
									CHANNELS 3 Zrotation Yrotation Xrotation
									End Site
									{
										OFFSET 0.000000 0.000000 0.000000
									}
								}
							}
						}
					}
				}
			}
		}
	}
}
MOTION
Frames: 13
Frame Time: 0.016667
-0.567820 16.723560 -2.039380 -6.882233 -8.357686 -1.573023 -14.996718 12.328133 4.406519 0.239030 -6.102495 -31.160695 -6.595936 14.604312 50.881218 0.595625 10.002562 1.158512 -0.131070 -0.547710 0.009130 18.422042 -11.270531 2.545752 -3.324724 5.505137 -21.617996 -10.262548 -1.685859 42.160159 -0.416051 -5.644601 2.516722 -0.328910 0.475960 0.135880 -3.918884 0.114939 -8.302581 12.912727 4.531398 21.089277 -0.125663 6.676351 5.256422 2.491300 1.971366 -10.352801 2.982089 -1.034418 49.816567 -4.853610 1.487950 4.780980 -9.221655 2.837327 2.872804 -43.838741 5.302195 -11.381051 4.084530 -61.436167 -4.206933 -3.690511 3.081695 0.520020 0.246690 -0.244200 0.005310 4.037596 -0.409909 6.074208 52.858245 3.925586 -14.447499 1.030405 80.297951 -4.724011 1.759281 -1.500406 -0.360380 0.245910 0.330570 -0.211430 
-0.586750 16.590410 -2.049030 -7.613158 -8.087427 -0.934909 -14.920216 11.957296 4.668768 1.450233 -6.545558 -32.643813 -12.083957 17.268142 49.486022 0.736393 10.563328 0.988160 -0.114370 -0.528380 -0.001250 18.547822 -11.196000 2.484286 -2.924543 5.615043 -21.555352 -10.897343 -1.401728 41.890243 -0.416105 -5.660521 2.507049 -0.307570 0.491320 0.162870 -4.243405 0.439139 -8.351540 16.078242 4.391505 19.871822 -0.153843 6.751562 6.006309 2.066014 1.738572 -9.995863 2.095516 -1.526271 48.114213 -5.176840 0.906880 4.603400 -9.970946 1.708546 3.250247 -41.263854 5.238380 -10.565788 1.859914 -64.413238 -3.353181 -3.710901 3.181931 0.486520 0.274050 -0.264580 0.014790 5.437417 0.425732 5.465149 50.751853 3.895189 -15.055025 -5.101970 75.641165 -7.844848 1.712380 -1.424762 -0.345290 0.224010 0.332200 -0.203280 
-0.606460 16.459790 -2.065680 -7.758101 -6.804619 -0.746029 -14.908126 11.580030 5.039761 3.413146 -7.316476 -35.007331 -16.687179 20.151143 50.282745 0.989283 11.531351 0.717723 -0.110670 -0.514570 -0.016420 18.624224 -11.035122 2.359818 -3.139279 5.640799 -21.451485 -10.514466 -1.830782 43.171732 -0.458042 -5.912335 2.425781 -0.293350 0.512750 0.171140 -4.415605 0.556749 -8.477347 18.312884 3.874444 19.467654 -0.162981 6.524259 5.964291 1.715569 1.518327 -9.718911 1.305546 -2.001095 46.700847 -5.700450 0.633670 4.735390 -11.013489 0.551785 3.468967 -38.368943 5.025182 -9.636130 0.579359 -67.558597 -2.819816 -3.732045 3.230798 0.456970 0.298660 -0.281050 0.032200 7.016420 1.412113 5.042361 48.990493 3.619553 -15.371609 -9.765212 70.612796 -9.321268 1.686622 -1.355824 -0.342260 0.222270 0.326260 -0.191420 
-0.632140 16.332130 -2.074220 -7.402475 -5.363326 -0.626774 -14.970753 11.165321 5.527075 6.778382 -7.963846 -38.079222 -21.711747 24.101282 52.186456 1.348820 12.892681 0.358230 -0.128720 -0.528980 -0.037770 18.648339 -10.781094 2.176552 -3.649421 5.560741 -21.499456 -10.050927 -2.407906 44.659682 -0.488923 -6.205240 2.330724 -0.290260 0.543320 0.165330 -4.404928 0.523276 -8.660412 18.930555 3.486017 19.029677 0.563448 6.239958 5.591414 1.412006 1.605317 -9.462640 1.224879 -2.520856 45.327489 -6.375910 0.798930 5.866880 -11.998656 -0.359826 3.599055 -36.215341 4.660379 -8.728759 -1.564024 -70.158846 -1.543075 -3.766938 3.278063 0.419030 0.332270 -0.317730 0.043480 8.561226 2.099894 4.653607 47.070796 3.247897 -14.918742 -11.135297 65.324956 -8.506601 1.695513 -1.350098 -0.355370 0.218110 0.326010 -0.186070 
-0.644610 16.226480 -2.065380 -6.844011 -3.992516 -1.333452 -15.060158 10.860892 6.084157 11.674303 -7.780009 -40.289855 -28.044040 29.016095 53.239336 1.767091 14.181410 0.036955 -0.079080 -0.461630 -0.013950 18.631207 -10.530732 1.923661 -3.951331 5.180707 -20.277540 -10.502173 -2.522806 45.704924 -0.568190 -6.399995 2.273250 -0.269500 0.513730 0.157050 -4.285451 0.273821 -8.891598 19.346504 2.568915 20.075958 1.163741 5.897780 4.563229 1.045123 0.909594 -9.325263 -0.312036 -2.241097 45.168668 -5.902800 0.595780 5.193340 -13.288831 -0.709605 3.720689 -35.325706 5.255031 -8.575429 -2.379456 -73.760278 -1.262621 -3.718660 3.313793 0.419890 0.299840 -0.287760 0.071840 10.522014 3.083498 4.375885 44.828756 2.767993 -14.447507 -12.318360 59.956158 -7.633308 1.742913 -1.335432 -0.328230 0.212950 0.276580 -0.171220 
-0.631780 16.160610 -2.045620 -6.385019 -2.857702 -2.317950 -15.163959 10.689142 6.619072 16.895748 -6.818081 -41.436029 -34.746561 33.497022 52.433737 2.078591 14.896754 -0.145287 -0.028600 -0.396440 0.012310 18.585424 -10.314115 1.662495 -4.330698 4.647981 -18.581208 -11.259468 -2.444523 46.015811 -0.625256 -6.485587 2.253531 -0.268840 0.439020 0.164060 -4.101251 -0.096067 -9.114276 19.934859 1.545011 21.583722 1.975142 5.762733 2.799567 0.931382 -0.070751 -9.382441 -2.271860 -1.622567 46.356501 -6.230510 1.030390 5.087170 -14.365387 -0.071344 3.725538 -36.854406 5.866261 -8.715334 0.533237 -77.638551 -3.632923 -3.640104 3.353226 0.423270 0.255550 -0.243950 0.079870 11.764801 3.611128 4.290541 42.876896 2.360883 -13.254208 -12.084442 53.423336 -5.904051 1.826915 -1.348027 -0.269520 0.154400 0.230840 -0.166440 
-0.606330 16.133130 -2.027810 -5.797868 -1.908239 -3.210591 -15.293489 10.606582 7.078196 21.855974 -5.553808 -41.685706 -41.600028 36.808577 49.763939 2.190364 15.056458 -0.198800 -0.001130 -0.377020 0.059350 18.507940 -10.142460 1.425354 -4.907141 4.028333 -17.064155 -11.869780 -2.461896 46.053590 -0.677525 -6.498425 2.236549 -0.279350 0.370680 0.174640 -3.835397 -0.481014 -9.314108 19.690410 1.068039 23.216490 3.191986 6.241962 0.657087 0.924335 -0.194760 -9.412448 -2.549632 -1.804604 48.514559 -6.342410 1.400370 3.956610 -14.378660 1.668980 3.391771 -40.731225 4.445964 -7.824285 -0.072237 -81.638883 -3.423168 -3.583041 3.366388 0.483130 0.203960 -0.184750 0.058830 11.775510 2.638399 4.132333 43.288097 1.984696 -11.920078 -12.439830 46.288630 -4.609107 1.909302 -1.289531 -0.248990 0.134350 0.222020 -0.190670 
-0.559610 16.125620 -2.003660 -4.867142 -0.844781 -3.110788 -15.400941 10.599888 7.364272 25.289076 -4.519700 -41.488796 -47.758775 38.290727 45.732704 2.208936 14.773295 -0.122928 0.015620 -0.367120 0.081240 18.431604 -10.046720 1.243165 -6.523402 3.553041 -17.004146 -11.494121 -3.046977 46.286898 -0.694980 -6.532936 2.217528 -0.297220 0.329140 0.188530 -3.599800 -0.787408 -9.446427 18.774375 0.729293 23.748340 4.395954 6.485669 -1.594572 0.910003 -0.088506 -9.395730 -2.170576 -2.008856 49.759989 -6.396830 2.086100 3.925660 -14.510723 3.729751 3.410457 -45.470997 4.277041 -6.831773 -0.098850 -87.606652 -3.946344 -3.527325 3.415962 0.514950 0.177850 -0.148300 0.058040 11.938129 1.089165 3.582924 43.436147 1.988426 -10.041206 -12.298355 38.348993 -3.279763 2.015039 -1.253609 -0.227230 0.102350 0.205900 -0.201890 
-0.508710 16.145680 -1.993040 -3.534694 0.846485 -2.149448 -15.487133 10.542500 7.537196 27.554534 -4.026371 -41.646116 -53.232402 38.239306 41.093951 2.160945 14.362049 0.004095 -0.003570 -0.400090 0.095770 18.375856 -10.000888 1.107351 -8.708032 3.057241 -18.351274 -10.715029 -3.981739 46.779356 -0.677779 -6.615192 2.185364 -0.318800 0.323760 0.183540 -3.417945 -0.913518 -9.525902 17.018019 0.859539 22.678722 6.069866 6.491230 -2.932991 0.833935 0.774149 -9.246770 -0.536286 -3.308965 50.264327 -7.185900 2.633070 5.036830 -14.464953 5.660554 3.688329 -51.300246 3.197788 -1.144596 121.930507 -85.084530 -126.531555 -3.862787 3.158722 0.524610 0.188270 -0.148410 0.050970 12.162022 -1.246727 2.657256 44.093895 1.623476 -8.647578 -11.255766 31.726422 -2.230025 2.106190 -1.208679 -0.240910 0.098360 0.203360 -0.220620 
-0.442210 16.181360 -1.988070 -2.609470 2.071156 -0.679544 -15.492983 10.432140 7.597883 29.459395 -3.398133 -41.149695 -57.680188 36.592729 35.713295 2.099772 13.809941 0.192703 -0.036090 -0.426170 0.089300 18.398554 -9.998984 1.043241 -10.662600 2.574530 -20.052100 -9.691568 -4.966781 46.655829 -0.637105 -6.618138 2.186223 -0.339550 0.351160 0.169350 -3.455197 -0.822530 -9.541679 16.714051 0.652111 20.907282 6.155545 6.100976 -4.180998 0.930884 1.669475 -8.743713 0.988148 -4.353819 50.059235 -7.729510 3.247910 6.647600 -14.501024 7.598784 3.437175 -55.468754 3.191093 -4.400526 -165.182127 -82.836903 159.199240 -3.452523 3.261651 0.499230 0.214830 -0.157760 0.064130 11.997411 -4.164909 1.659419 45.667987 1.114424 -7.798786 -10.032323 26.819513 -1.608089 2.197025 -1.173240 -0.253700 0.112780 0.187790 -0.210350 
-0.358470 16.242180 -1.970020 -1.848154 3.518812 0.898132 -15.446631 10.374098 7.564897 30.465729 -3.365529 -39.975632 -59.419868 33.462675 31.028654 2.037579 13.248833 0.374938 -0.069290 -0.469750 0.074180 18.452545 -10.067242 0.973317 -12.238136 1.771192 -21.113378 -8.872196 -5.694933 45.172899 -0.555340 -6.453567 2.243403 -0.382030 0.375290 0.187850 -3.611655 -0.711296 -9.470510 17.248825 0.129320 18.488223 5.439800 5.272236 -4.983780 1.126716 2.303759 -8.339380 1.828016 -5.228340 49.201811 -8.562940 3.709590 9.494600 -14.499263 9.521746 3.449982 -59.075045 3.448572 -2.978213 -158.648325 -79.050901 150.110561 -3.439289 3.242153 0.442540 0.252900 -0.177990 0.080890 11.534051 -7.275997 0.794877 47.716212 -0.391738 -7.986075 -9.417894 25.251864 -1.367632 2.255865 -1.193829 -0.232520 0.073620 0.169750 -0.188910 
-0.257070 16.340770 -1.946800 -1.738845 4.838312 1.583803 -15.361543 10.535109 7.468226 30.929223 -3.779974 -37.449633 -58.442102 29.262828 27.052825 1.830649 12.629576 0.522134 -0.114920 -0.534520 0.056130 18.506566 -10.169287 0.871537 -12.346393 0.829735 -20.558127 -9.271175 -5.556748 42.734458 -0.469339 -6.070305 2.399538 -0.417880 0.377680 0.157080 -3.833520 -0.920815 -9.346734 19.821809 -1.482304 17.262037 2.911776 3.880637 -5.903449 1.711690 1.597467 -8.293622 -0.090519 -4.639495 50.288055 -9.166330 4.062230 10.489130 -14.292907 11.564454 3.273351 -61.503979 4.814454 -2.131108 -155.112135 -75.672182 143.494670 -3.423264 3.166570 0.476580 0.246100 -0.187940 0.066630 9.909450 -9.765076 0.694307 51.308029 -2.557002 -9.320817 -9.366799 26.604412 -1.315807 2.238552 -1.141023 -0.268210 0.095150 0.191920 -0.206690 
-0.143360 16.445860 -1.925090 -2.077301 5.982267 2.422934 -15.217536 10.639692 7.232055 30.486910 -4.236018 -34.996113 -54.853994 24.999547 23.964080 1.605067 11.979829 0.689300 -0.170710 -0.634230 0.016820 18.623416 -10.305139 0.821412 -11.829743 0.181131 -20.156884 -9.805824 -5.198421 40.060727 -0.371716 -5.686092 2.534033 -0.470500 0.416500 0.164480 -4.219605 -0.888995 -9.082474 23.775670 -2.892655 15.189589 -0.561199 2.260013 -5.571821 2.119022 0.604276 -8.246648 -2.438624 -3.747844 49.616934 -8.705560 3.538500 12.599450 -13.569254 12.847501 3.296898 -63.153845 6.004275 -1.734603 -151.685516 -72.780729 136.359469 -3.448931 3.185914 0.472510 0.259810 -0.230000 0.057040 8.000080 -11.538537 0.989245 55.139464 -4.911761 -11.238570 -9.265339 29.617275 -1.386620 2.205245 -1.158929 -0.285820 0.078210 0.229090 -0.204370 
